<?xml version="1.0" encoding="UTF-8" standalone="no"?>
<!DOCTYPE svg PUBLIC "-//W3C//DTD SVG 1.1//EN"
 "http://www.w3.org/Graphics/SVG/1.1/DTD/svg11.dtd">
<!-- Generated by graphviz version 2.46.1 (20210213.1702)
 -->
<!-- Title: main Pages: 1 -->
<svg width="553pt" height="379pt"
 viewBox="0.00 0.00 553.00 378.50" xmlns="http://www.w3.org/2000/svg" xmlns:xlink="http://www.w3.org/1999/xlink">
<g id="graph0" class="graph" transform="scale(1 1) rotate(0) translate(4 374.5)">
<title>main</title>
<polygon fill="white" stroke="transparent" points="-4,4 -4,-374.5 549,-374.5 549,4 -4,4"/>
<!-- Node1 -->
<g id="node1" class="node">
<title>Node1</title>
<g id="a_node1"><a xlink:title="Main function.">
<polygon fill="#bfbfbf" stroke="black" points="0,-143 0,-162 38,-162 38,-143 0,-143"/>
<text text-anchor="middle" x="19" y="-150" font-family="Helvetica,sans-Serif" font-size="10.00">main</text>
</a>
</g>
</g>
<!-- Node2 -->
<g id="node2" class="node">
<title>Node2</title>
<g id="a_node2"><a xlink:href="../../d5/d8a/trie__using__hashmap_8cpp.html#aa8dca7b867074164d5f45b0f3851269d" target="_top" xlink:title="Self&#45;test implementations.">
<polygon fill="white" stroke="black" points="74,-143 74,-162 107,-162 107,-143 74,-143"/>
<text text-anchor="middle" x="90.5" y="-150" font-family="Helvetica,sans-Serif" font-size="10.00">test</text>
</a>
</g>
</g>
<!-- Node1&#45;&gt;Node2 -->
<g id="edge1" class="edge">
<title>Node1&#45;&gt;Node2</title>
<path fill="none" stroke="midnightblue" d="M38.26,-152.5C46.07,-152.5 55.31,-152.5 63.79,-152.5"/>
<polygon fill="midnightblue" stroke="midnightblue" points="63.95,-156 73.95,-152.5 63.95,-149 63.95,-156"/>
</g>
<!-- Node3 -->
<g id="node3" class="node">
<title>Node3</title>
<g id="a_node3"><a xlink:href="../../d0/d5b/classdata__structures_1_1_trie.html#a4dbfa35ad40ef0d52f80c6575432c5d4" target="_top" xlink:title="delete a word/string from a trie">
<polygon fill="white" stroke="black" points="143,-274.5 143,-304.5 250,-304.5 250,-274.5 143,-274.5"/>
<text text-anchor="start" x="151" y="-292.5" font-family="Helvetica,sans-Serif" font-size="10.00">data_structures::Trie</text>
<text text-anchor="middle" x="196.5" y="-281.5" font-family="Helvetica,sans-Serif" font-size="10.00">::delete_word</text>
</a>
</g>
</g>
<!-- Node2&#45;&gt;Node3 -->
<g id="edge2" class="edge">
<title>Node2&#45;&gt;Node3</title>
<path fill="none" stroke="midnightblue" d="M93.57,-162.18C98.56,-183.32 113.09,-234.18 143,-264.5 144.41,-265.93 145.92,-267.29 147.5,-268.57"/>
<polygon fill="midnightblue" stroke="midnightblue" points="145.71,-271.59 155.91,-274.46 149.72,-265.86 145.71,-271.59"/>
</g>
<!-- Node9 -->
<g id="node9" class="node">
<title>Node9</title>
<g id="a_node9"><a target="_blank" xlink:href="http://en.cppreference.com/w/cpp/io/manip/endl.html#" xlink:title=" ">
<polygon fill="white" stroke="black" points="169.5,-236 169.5,-255 223.5,-255 223.5,-236 169.5,-236"/>
<text text-anchor="middle" x="196.5" y="-243" font-family="Helvetica,sans-Serif" font-size="10.00">std::endl</text>
</a>
</g>
</g>
<!-- Node2&#45;&gt;Node9 -->
<g id="edge8" class="edge">
<title>Node2&#45;&gt;Node9</title>
<path fill="none" stroke="midnightblue" d="M95.77,-162.09C103.19,-177.74 119.91,-208.77 143,-226.5 148.04,-230.38 153.95,-233.51 159.95,-236.03"/>
<polygon fill="midnightblue" stroke="midnightblue" points="158.74,-239.32 169.34,-239.51 161.18,-232.76 158.74,-239.32"/>
</g>
<!-- Node10 -->
<g id="node10" class="node">
<title>Node10</title>
<g id="a_node10"><a xlink:href="../../d0/d5b/classdata__structures_1_1_trie.html#a1af602c0a24a76b68be8403a493503d8" target="_top" xlink:title="insert the string into the trie">
<polygon fill="white" stroke="black" points="143,-186.5 143,-216.5 250,-216.5 250,-186.5 143,-186.5"/>
<text text-anchor="start" x="151" y="-204.5" font-family="Helvetica,sans-Serif" font-size="10.00">data_structures::Trie</text>
<text text-anchor="middle" x="196.5" y="-193.5" font-family="Helvetica,sans-Serif" font-size="10.00">::insert</text>
</a>
</g>
</g>
<!-- Node2&#45;&gt;Node10 -->
<g id="edge9" class="edge">
<title>Node2&#45;&gt;Node10</title>
<path fill="none" stroke="midnightblue" d="M107.3,-159.94C119.74,-165.81 137.68,-174.26 154.13,-182.01"/>
<polygon fill="midnightblue" stroke="midnightblue" points="153.06,-185.37 163.6,-186.47 156.04,-179.04 153.06,-185.37"/>
</g>
<!-- Node11 -->
<g id="node11" class="node">
<title>Node11</title>
<g id="a_node11"><a xlink:href="../../d0/d5b/classdata__structures_1_1_trie.html#ad3747138ef929d05a8184c21f89ff945" target="_top" xlink:title="predict/recommend a words that starts with a given prefix">
<polygon fill="white" stroke="black" points="143,-137.5 143,-167.5 250,-167.5 250,-137.5 143,-137.5"/>
<text text-anchor="start" x="151" y="-155.5" font-family="Helvetica,sans-Serif" font-size="10.00">data_structures::Trie</text>
<text text-anchor="middle" x="196.5" y="-144.5" font-family="Helvetica,sans-Serif" font-size="10.00">::predict_words</text>
</a>
</g>
</g>
<!-- Node2&#45;&gt;Node11 -->
<g id="edge10" class="edge">
<title>Node2&#45;&gt;Node11</title>
<path fill="none" stroke="midnightblue" d="M107.3,-152.5C114.46,-152.5 123.46,-152.5 132.94,-152.5"/>
<polygon fill="midnightblue" stroke="midnightblue" points="132.94,-156 142.94,-152.5 132.94,-149 132.94,-156"/>
</g>
<!-- Node14 -->
<g id="node14" class="node">
<title>Node14</title>
<g id="a_node14"><a xlink:href="../../d0/d5b/classdata__structures_1_1_trie.html#a5514813ad711432fe0175bcaf84e9360" target="_top" xlink:title="search a word/string exists inside the trie">
<polygon fill="white" stroke="black" points="143,-88.5 143,-118.5 250,-118.5 250,-88.5 143,-88.5"/>
<text text-anchor="start" x="151" y="-106.5" font-family="Helvetica,sans-Serif" font-size="10.00">data_structures::Trie</text>
<text text-anchor="middle" x="196.5" y="-95.5" font-family="Helvetica,sans-Serif" font-size="10.00">::search</text>
</a>
</g>
</g>
<!-- Node2&#45;&gt;Node14 -->
<g id="edge14" class="edge">
<title>Node2&#45;&gt;Node14</title>
<path fill="none" stroke="midnightblue" d="M107.23,-144.75C117.41,-139.76 130.95,-133.18 143,-127.5 146.18,-126 149.47,-124.46 152.79,-122.93"/>
<polygon fill="midnightblue" stroke="midnightblue" points="154.51,-125.99 162.12,-118.62 151.57,-119.63 154.51,-125.99"/>
</g>
<!-- Node15 -->
<g id="node15" class="node">
<title>Node15</title>
<g id="a_node15"><a target="_blank" xlink:href="http://en.cppreference.com/w/cpp/container/vector/size.html#" xlink:title=" ">
<polygon fill="white" stroke="black" points="153,-50 153,-69 240,-69 240,-50 153,-50"/>
<text text-anchor="middle" x="196.5" y="-57" font-family="Helvetica,sans-Serif" font-size="10.00">std::vector::size</text>
</a>
</g>
</g>
<!-- Node2&#45;&gt;Node15 -->
<g id="edge15" class="edge">
<title>Node2&#45;&gt;Node15</title>
<path fill="none" stroke="midnightblue" d="M95.77,-142.91C103.19,-127.26 119.91,-96.23 143,-78.5 145.42,-76.64 148.04,-74.95 150.77,-73.42"/>
<polygon fill="midnightblue" stroke="midnightblue" points="152.32,-76.56 159.78,-69.04 149.26,-70.26 152.32,-76.56"/>
</g>
<!-- Node16 -->
<g id="node16" class="node">
<title>Node16</title>
<g id="a_node16"><a xlink:href="../../d0/d5b/classdata__structures_1_1_trie.html#a2cb8d9e3a8b9a289a074d59a65eb58f1" target="_top" xlink:title="search a word/string that starts with a given prefix">
<polygon fill="white" stroke="black" points="143,-0.5 143,-30.5 250,-30.5 250,-0.5 143,-0.5"/>
<text text-anchor="start" x="151" y="-18.5" font-family="Helvetica,sans-Serif" font-size="10.00">data_structures::Trie</text>
<text text-anchor="middle" x="196.5" y="-7.5" font-family="Helvetica,sans-Serif" font-size="10.00">::startwith</text>
</a>
</g>
</g>
<!-- Node2&#45;&gt;Node16 -->
<g id="edge16" class="edge">
<title>Node2&#45;&gt;Node16</title>
<path fill="none" stroke="midnightblue" d="M93.57,-142.82C98.56,-121.68 113.09,-70.82 143,-40.5 144.41,-39.07 145.92,-37.71 147.5,-36.43"/>
<polygon fill="midnightblue" stroke="midnightblue" points="149.72,-39.14 155.91,-30.54 145.71,-33.41 149.72,-39.14"/>
</g>
<!-- Node4 -->
<g id="node4" class="node">
<title>Node4</title>
<g id="a_node4"><a target="_blank" xlink:href="http://en.cppreference.com/w/cpp/string/basic_string/back.html#" xlink:title=" ">
<polygon fill="white" stroke="black" points="296,-351 296,-370 383,-370 383,-351 296,-351"/>
<text text-anchor="middle" x="339.5" y="-358" font-family="Helvetica,sans-Serif" font-size="10.00">std::string::back</text>
</a>
</g>
</g>
<!-- Node3&#45;&gt;Node4 -->
<g id="edge3" class="edge">
<title>Node3&#45;&gt;Node4</title>
<path fill="none" stroke="midnightblue" d="M220.53,-304.62C238.02,-315.71 262.94,-330.66 286,-341.5 290.38,-343.56 295.04,-345.53 299.71,-347.38"/>
<polygon fill="midnightblue" stroke="midnightblue" points="298.64,-350.72 309.23,-350.98 301.11,-344.17 298.64,-350.72"/>
</g>
<!-- Node5 -->
<g id="node5" class="node">
<title>Node5</title>
<g id="a_node5"><a target="_blank" xlink:href="http://en.cppreference.com/w/cpp/container/stack/pop.html#" xlink:title=" ">
<polygon fill="white" stroke="black" points="298.5,-313 298.5,-332 380.5,-332 380.5,-313 298.5,-313"/>
<text text-anchor="middle" x="339.5" y="-320" font-family="Helvetica,sans-Serif" font-size="10.00">std::stack::pop</text>
</a>
</g>
</g>
<!-- Node3&#45;&gt;Node5 -->
<g id="edge4" class="edge">
<title>Node3&#45;&gt;Node5</title>
<path fill="none" stroke="midnightblue" d="M250,-301.79C262.61,-304.74 276.03,-307.88 288.52,-310.8"/>
<polygon fill="midnightblue" stroke="midnightblue" points="287.76,-314.22 298.3,-313.09 289.36,-307.4 287.76,-314.22"/>
</g>
<!-- Node6 -->
<g id="node6" class="node">
<title>Node6</title>
<g id="a_node6"><a target="_blank" xlink:href="http://en.cppreference.com/w/cpp/string/basic_string/pop_back.html#" xlink:title=" ">
<polygon fill="white" stroke="black" points="433,-230 433,-249 541,-249 541,-230 433,-230"/>
<text text-anchor="middle" x="487" y="-237" font-family="Helvetica,sans-Serif" font-size="10.00">std::string::pop_back</text>
</a>
</g>
</g>
<!-- Node3&#45;&gt;Node6 -->
<g id="edge5" class="edge">
<title>Node3&#45;&gt;Node6</title>
<path fill="none" stroke="midnightblue" d="M250.12,-285.2C289.67,-281.45 345.05,-275.09 393,-265.5 410.7,-261.96 429.96,-256.8 446.34,-252.01"/>
<polygon fill="midnightblue" stroke="midnightblue" points="447.54,-255.3 456.12,-249.09 445.54,-248.59 447.54,-255.3"/>
</g>
<!-- Node7 -->
<g id="node7" class="node">
<title>Node7</title>
<g id="a_node7"><a target="_blank" xlink:href="http://en.cppreference.com/w/cpp/container/stack/push.html#" xlink:title=" ">
<polygon fill="white" stroke="black" points="296,-237 296,-256 383,-256 383,-237 296,-237"/>
<text text-anchor="middle" x="339.5" y="-244" font-family="Helvetica,sans-Serif" font-size="10.00">std::stack::push</text>
</a>
</g>
</g>
<!-- Node3&#45;&gt;Node7 -->
<g id="edge6" class="edge">
<title>Node3&#45;&gt;Node7</title>
<path fill="none" stroke="midnightblue" d="M246.81,-274.46C263.23,-269.45 281.34,-263.93 297.09,-259.13"/>
<polygon fill="midnightblue" stroke="midnightblue" points="298.52,-262.35 307.07,-256.09 296.48,-255.66 298.52,-262.35"/>
</g>
<!-- Node8 -->
<g id="node8" class="node">
<title>Node8</title>
<g id="a_node8"><a target="_blank" xlink:href="http://en.cppreference.com/w/cpp/container/stack/top.html#" xlink:title=" ">
<polygon fill="white" stroke="black" points="299.5,-199 299.5,-218 379.5,-218 379.5,-199 299.5,-199"/>
<text text-anchor="middle" x="339.5" y="-206" font-family="Helvetica,sans-Serif" font-size="10.00">std::stack::top</text>
</a>
</g>
</g>
<!-- Node3&#45;&gt;Node8 -->
<g id="edge7" class="edge">
<title>Node3&#45;&gt;Node8</title>
<path fill="none" stroke="midnightblue" d="M233.49,-274.47C239.21,-271.49 244.91,-268.15 250,-264.5 268.65,-251.14 266.72,-239.94 286,-227.5 288.98,-225.58 292.18,-223.81 295.48,-222.21"/>
<polygon fill="midnightblue" stroke="midnightblue" points="297.17,-225.29 304.93,-218.08 294.37,-218.87 297.17,-225.29"/>
</g>
<!-- Node12 -->
<g id="node12" class="node">
<title>Node12</title>
<g id="a_node12"><a xlink:href="../../d0/d5b/classdata__structures_1_1_trie.html#ac6c9ba24479ed887dceebad2185a3cca" target="_top" xlink:title="helper function to predict/recommend words that starts with a given prefix from the end of prefix&#39;s n...">
<polygon fill="white" stroke="black" points="286,-145.5 286,-175.5 393,-175.5 393,-145.5 286,-145.5"/>
<text text-anchor="start" x="294" y="-163.5" font-family="Helvetica,sans-Serif" font-size="10.00">data_structures::Trie</text>
<text text-anchor="middle" x="339.5" y="-152.5" font-family="Helvetica,sans-Serif" font-size="10.00">::get_all_words</text>
</a>
</g>
</g>
<!-- Node11&#45;&gt;Node12 -->
<g id="edge11" class="edge">
<title>Node11&#45;&gt;Node12</title>
<path fill="none" stroke="midnightblue" d="M250,-155.48C258.44,-155.96 267.26,-156.46 275.9,-156.95"/>
<polygon fill="midnightblue" stroke="midnightblue" points="275.77,-160.45 285.95,-157.52 276.17,-153.46 275.77,-160.45"/>
</g>
<!-- Node12&#45;&gt;Node6 -->
<g id="edge12" class="edge">
<title>Node12&#45;&gt;Node6</title>
<path fill="none" stroke="midnightblue" d="M368.21,-175.55C394.5,-189.82 433.73,-211.12 459.58,-225.16"/>
<polygon fill="midnightblue" stroke="midnightblue" points="457.99,-228.28 468.45,-229.97 461.33,-222.13 457.99,-228.28"/>
</g>
<!-- Node13 -->
<g id="node13" class="node">
<title>Node13</title>
<g id="a_node13"><a target="_blank" xlink:href="http://en.cppreference.com/w/cpp/container/vector/push_back.html#" xlink:title=" ">
<polygon fill="white" stroke="black" points="429,-151 429,-170 545,-170 545,-151 429,-151"/>
<text text-anchor="middle" x="487" y="-158" font-family="Helvetica,sans-Serif" font-size="10.00">std::vector::push_back</text>
</a>
</g>
</g>
<!-- Node12&#45;&gt;Node13 -->
<g id="edge13" class="edge">
<title>Node12&#45;&gt;Node13</title>
<path fill="none" stroke="midnightblue" d="M393.03,-160.5C401.34,-160.5 410.03,-160.5 418.62,-160.5"/>
<polygon fill="midnightblue" stroke="midnightblue" points="418.63,-164 428.63,-160.5 418.63,-157 418.63,-164"/>
</g>
</g>
</svg>
