<?xml version="1.0" encoding="UTF-8" standalone="no"?>
<!DOCTYPE svg PUBLIC "-//W3C//DTD SVG 1.1//EN"
 "http://www.w3.org/Graphics/SVG/1.1/DTD/svg11.dtd">
<!-- Generated by graphviz version 2.46.1 (20210213.1702)
 -->
<!-- Title: test Pages: 1 -->
<svg width="479pt" height="379pt"
 viewBox="0.00 0.00 479.00 378.50" xmlns="http://www.w3.org/2000/svg" xmlns:xlink="http://www.w3.org/1999/xlink">
<g id="graph0" class="graph" transform="scale(1 1) rotate(0) translate(4 374.5)">
<title>test</title>
<polygon fill="white" stroke="transparent" points="-4,4 -4,-374.5 475,-374.5 475,4 -4,4"/>
<!-- Node1 -->
<g id="node1" class="node">
<title>Node1</title>
<g id="a_node1"><a xlink:title="Self&#45;test implementations.">
<polygon fill="#bfbfbf" stroke="black" points="0,-143 0,-162 33,-162 33,-143 0,-143"/>
<text text-anchor="middle" x="16.5" y="-150" font-family="Helvetica,sans-Serif" font-size="10.00">test</text>
</a>
</g>
</g>
<!-- Node2 -->
<g id="node2" class="node">
<title>Node2</title>
<g id="a_node2"><a xlink:href="../../d0/d5b/classdata__structures_1_1_trie.html#a4dbfa35ad40ef0d52f80c6575432c5d4" target="_top" xlink:title=" ">
<polygon fill="white" stroke="black" points="69,-274.5 69,-304.5 176,-304.5 176,-274.5 69,-274.5"/>
<text text-anchor="start" x="77" y="-292.5" font-family="Helvetica,sans-Serif" font-size="10.00">data_structures::Trie</text>
<text text-anchor="middle" x="122.5" y="-281.5" font-family="Helvetica,sans-Serif" font-size="10.00">::delete_word</text>
</a>
</g>
</g>
<!-- Node1&#45;&gt;Node2 -->
<g id="edge1" class="edge">
<title>Node1&#45;&gt;Node2</title>
<path fill="none" stroke="midnightblue" d="M19.57,-162.18C24.56,-183.32 39.09,-234.18 69,-264.5 70.41,-265.93 71.92,-267.29 73.5,-268.57"/>
<polygon fill="midnightblue" stroke="midnightblue" points="71.71,-271.59 81.91,-274.46 75.72,-265.86 71.71,-271.59"/>
</g>
<!-- Node8 -->
<g id="node8" class="node">
<title>Node8</title>
<g id="a_node8"><a target="_blank" xlink:href="http://en.cppreference.com/w/cpp/io/manip/endl.html#" xlink:title=" ">
<polygon fill="white" stroke="black" points="95.5,-236 95.5,-255 149.5,-255 149.5,-236 95.5,-236"/>
<text text-anchor="middle" x="122.5" y="-243" font-family="Helvetica,sans-Serif" font-size="10.00">std::endl</text>
</a>
</g>
</g>
<!-- Node1&#45;&gt;Node8 -->
<g id="edge7" class="edge">
<title>Node1&#45;&gt;Node8</title>
<path fill="none" stroke="midnightblue" d="M21.77,-162.09C29.19,-177.74 45.91,-208.77 69,-226.5 74.04,-230.38 79.95,-233.51 85.95,-236.03"/>
<polygon fill="midnightblue" stroke="midnightblue" points="84.74,-239.32 95.34,-239.51 87.18,-232.76 84.74,-239.32"/>
</g>
<!-- Node9 -->
<g id="node9" class="node">
<title>Node9</title>
<g id="a_node9"><a xlink:href="../../d0/d5b/classdata__structures_1_1_trie.html#a1af602c0a24a76b68be8403a493503d8" target="_top" xlink:title=" ">
<polygon fill="white" stroke="black" points="69,-186.5 69,-216.5 176,-216.5 176,-186.5 69,-186.5"/>
<text text-anchor="start" x="77" y="-204.5" font-family="Helvetica,sans-Serif" font-size="10.00">data_structures::Trie</text>
<text text-anchor="middle" x="122.5" y="-193.5" font-family="Helvetica,sans-Serif" font-size="10.00">::insert</text>
</a>
</g>
</g>
<!-- Node1&#45;&gt;Node9 -->
<g id="edge8" class="edge">
<title>Node1&#45;&gt;Node9</title>
<path fill="none" stroke="midnightblue" d="M33.3,-159.94C45.74,-165.81 63.68,-174.26 80.13,-182.01"/>
<polygon fill="midnightblue" stroke="midnightblue" points="79.06,-185.37 89.6,-186.47 82.04,-179.04 79.06,-185.37"/>
</g>
<!-- Node10 -->
<g id="node10" class="node">
<title>Node10</title>
<g id="a_node10"><a xlink:href="../../d0/d5b/classdata__structures_1_1_trie.html#ad3747138ef929d05a8184c21f89ff945" target="_top" xlink:title=" ">
<polygon fill="white" stroke="black" points="69,-137.5 69,-167.5 176,-167.5 176,-137.5 69,-137.5"/>
<text text-anchor="start" x="77" y="-155.5" font-family="Helvetica,sans-Serif" font-size="10.00">data_structures::Trie</text>
<text text-anchor="middle" x="122.5" y="-144.5" font-family="Helvetica,sans-Serif" font-size="10.00">::predict_words</text>
</a>
</g>
</g>
<!-- Node1&#45;&gt;Node10 -->
<g id="edge9" class="edge">
<title>Node1&#45;&gt;Node10</title>
<path fill="none" stroke="midnightblue" d="M33.3,-152.5C40.46,-152.5 49.46,-152.5 58.94,-152.5"/>
<polygon fill="midnightblue" stroke="midnightblue" points="58.94,-156 68.94,-152.5 58.94,-149 58.94,-156"/>
</g>
<!-- Node13 -->
<g id="node13" class="node">
<title>Node13</title>
<g id="a_node13"><a xlink:href="../../d0/d5b/classdata__structures_1_1_trie.html#a5514813ad711432fe0175bcaf84e9360" target="_top" xlink:title=" ">
<polygon fill="white" stroke="black" points="69,-88.5 69,-118.5 176,-118.5 176,-88.5 69,-88.5"/>
<text text-anchor="start" x="77" y="-106.5" font-family="Helvetica,sans-Serif" font-size="10.00">data_structures::Trie</text>
<text text-anchor="middle" x="122.5" y="-95.5" font-family="Helvetica,sans-Serif" font-size="10.00">::search</text>
</a>
</g>
</g>
<!-- Node1&#45;&gt;Node13 -->
<g id="edge13" class="edge">
<title>Node1&#45;&gt;Node13</title>
<path fill="none" stroke="midnightblue" d="M33.23,-144.75C43.41,-139.76 56.95,-133.18 69,-127.5 72.18,-126 75.47,-124.46 78.79,-122.93"/>
<polygon fill="midnightblue" stroke="midnightblue" points="80.51,-125.99 88.12,-118.62 77.57,-119.63 80.51,-125.99"/>
</g>
<!-- Node14 -->
<g id="node14" class="node">
<title>Node14</title>
<g id="a_node14"><a target="_blank" xlink:href="http://en.cppreference.com/w/cpp/container/vector/size.html#" xlink:title=" ">
<polygon fill="white" stroke="black" points="79,-50 79,-69 166,-69 166,-50 79,-50"/>
<text text-anchor="middle" x="122.5" y="-57" font-family="Helvetica,sans-Serif" font-size="10.00">std::vector::size</text>
</a>
</g>
</g>
<!-- Node1&#45;&gt;Node14 -->
<g id="edge14" class="edge">
<title>Node1&#45;&gt;Node14</title>
<path fill="none" stroke="midnightblue" d="M21.77,-142.91C29.19,-127.26 45.91,-96.23 69,-78.5 71.42,-76.64 74.04,-74.95 76.77,-73.42"/>
<polygon fill="midnightblue" stroke="midnightblue" points="78.32,-76.56 85.78,-69.04 75.26,-70.26 78.32,-76.56"/>
</g>
<!-- Node15 -->
<g id="node15" class="node">
<title>Node15</title>
<g id="a_node15"><a xlink:href="../../d0/d5b/classdata__structures_1_1_trie.html#a2cb8d9e3a8b9a289a074d59a65eb58f1" target="_top" xlink:title=" ">
<polygon fill="white" stroke="black" points="69,-0.5 69,-30.5 176,-30.5 176,-0.5 69,-0.5"/>
<text text-anchor="start" x="77" y="-18.5" font-family="Helvetica,sans-Serif" font-size="10.00">data_structures::Trie</text>
<text text-anchor="middle" x="122.5" y="-7.5" font-family="Helvetica,sans-Serif" font-size="10.00">::startwith</text>
</a>
</g>
</g>
<!-- Node1&#45;&gt;Node15 -->
<g id="edge15" class="edge">
<title>Node1&#45;&gt;Node15</title>
<path fill="none" stroke="midnightblue" d="M19.57,-142.82C24.56,-121.68 39.09,-70.82 69,-40.5 70.41,-39.07 71.92,-37.71 73.5,-36.43"/>
<polygon fill="midnightblue" stroke="midnightblue" points="75.72,-39.14 81.91,-30.54 71.71,-33.41 75.72,-39.14"/>
</g>
<!-- Node3 -->
<g id="node3" class="node">
<title>Node3</title>
<g id="a_node3"><a target="_blank" xlink:href="http://en.cppreference.com/w/cpp/string/basic_string/back.html#" xlink:title=" ">
<polygon fill="white" stroke="black" points="222,-351 222,-370 309,-370 309,-351 222,-351"/>
<text text-anchor="middle" x="265.5" y="-358" font-family="Helvetica,sans-Serif" font-size="10.00">std::string::back</text>
</a>
</g>
</g>
<!-- Node2&#45;&gt;Node3 -->
<g id="edge2" class="edge">
<title>Node2&#45;&gt;Node3</title>
<path fill="none" stroke="midnightblue" d="M146.53,-304.62C164.02,-315.71 188.94,-330.66 212,-341.5 216.38,-343.56 221.04,-345.53 225.71,-347.38"/>
<polygon fill="midnightblue" stroke="midnightblue" points="224.64,-350.72 235.23,-350.98 227.11,-344.17 224.64,-350.72"/>
</g>
<!-- Node4 -->
<g id="node4" class="node">
<title>Node4</title>
<g id="a_node4"><a target="_blank" xlink:href="http://en.cppreference.com/w/cpp/container/stack/pop.html#" xlink:title=" ">
<polygon fill="white" stroke="black" points="224.5,-313 224.5,-332 306.5,-332 306.5,-313 224.5,-313"/>
<text text-anchor="middle" x="265.5" y="-320" font-family="Helvetica,sans-Serif" font-size="10.00">std::stack::pop</text>
</a>
</g>
</g>
<!-- Node2&#45;&gt;Node4 -->
<g id="edge3" class="edge">
<title>Node2&#45;&gt;Node4</title>
<path fill="none" stroke="midnightblue" d="M176,-301.79C188.61,-304.74 202.03,-307.88 214.52,-310.8"/>
<polygon fill="midnightblue" stroke="midnightblue" points="213.76,-314.22 224.3,-313.09 215.36,-307.4 213.76,-314.22"/>
</g>
<!-- Node5 -->
<g id="node5" class="node">
<title>Node5</title>
<g id="a_node5"><a target="_blank" xlink:href="http://en.cppreference.com/w/cpp/string/basic_string/pop_back.html#" xlink:title=" ">
<polygon fill="white" stroke="black" points="359,-230 359,-249 467,-249 467,-230 359,-230"/>
<text text-anchor="middle" x="413" y="-237" font-family="Helvetica,sans-Serif" font-size="10.00">std::string::pop_back</text>
</a>
</g>
</g>
<!-- Node2&#45;&gt;Node5 -->
<g id="edge4" class="edge">
<title>Node2&#45;&gt;Node5</title>
<path fill="none" stroke="midnightblue" d="M176.12,-285.2C215.67,-281.45 271.05,-275.09 319,-265.5 336.7,-261.96 355.96,-256.8 372.34,-252.01"/>
<polygon fill="midnightblue" stroke="midnightblue" points="373.54,-255.3 382.12,-249.09 371.54,-248.59 373.54,-255.3"/>
</g>
<!-- Node6 -->
<g id="node6" class="node">
<title>Node6</title>
<g id="a_node6"><a target="_blank" xlink:href="http://en.cppreference.com/w/cpp/container/stack/push.html#" xlink:title=" ">
<polygon fill="white" stroke="black" points="222,-237 222,-256 309,-256 309,-237 222,-237"/>
<text text-anchor="middle" x="265.5" y="-244" font-family="Helvetica,sans-Serif" font-size="10.00">std::stack::push</text>
</a>
</g>
</g>
<!-- Node2&#45;&gt;Node6 -->
<g id="edge5" class="edge">
<title>Node2&#45;&gt;Node6</title>
<path fill="none" stroke="midnightblue" d="M172.81,-274.46C189.23,-269.45 207.34,-263.93 223.09,-259.13"/>
<polygon fill="midnightblue" stroke="midnightblue" points="224.52,-262.35 233.07,-256.09 222.48,-255.66 224.52,-262.35"/>
</g>
<!-- Node7 -->
<g id="node7" class="node">
<title>Node7</title>
<g id="a_node7"><a target="_blank" xlink:href="http://en.cppreference.com/w/cpp/container/stack/top.html#" xlink:title=" ">
<polygon fill="white" stroke="black" points="225.5,-199 225.5,-218 305.5,-218 305.5,-199 225.5,-199"/>
<text text-anchor="middle" x="265.5" y="-206" font-family="Helvetica,sans-Serif" font-size="10.00">std::stack::top</text>
</a>
</g>
</g>
<!-- Node2&#45;&gt;Node7 -->
<g id="edge6" class="edge">
<title>Node2&#45;&gt;Node7</title>
<path fill="none" stroke="midnightblue" d="M159.49,-274.47C165.21,-271.49 170.91,-268.15 176,-264.5 194.65,-251.14 192.72,-239.94 212,-227.5 214.98,-225.58 218.18,-223.81 221.48,-222.21"/>
<polygon fill="midnightblue" stroke="midnightblue" points="223.17,-225.29 230.93,-218.08 220.37,-218.87 223.17,-225.29"/>
</g>
<!-- Node11 -->
<g id="node11" class="node">
<title>Node11</title>
<g id="a_node11"><a xlink:href="../../d0/d5b/classdata__structures_1_1_trie.html#ac6c9ba24479ed887dceebad2185a3cca" target="_top" xlink:title=" ">
<polygon fill="white" stroke="black" points="212,-145.5 212,-175.5 319,-175.5 319,-145.5 212,-145.5"/>
<text text-anchor="start" x="220" y="-163.5" font-family="Helvetica,sans-Serif" font-size="10.00">data_structures::Trie</text>
<text text-anchor="middle" x="265.5" y="-152.5" font-family="Helvetica,sans-Serif" font-size="10.00">::get_all_words</text>
</a>
</g>
</g>
<!-- Node10&#45;&gt;Node11 -->
<g id="edge10" class="edge">
<title>Node10&#45;&gt;Node11</title>
<path fill="none" stroke="midnightblue" d="M176,-155.48C184.44,-155.96 193.26,-156.46 201.9,-156.95"/>
<polygon fill="midnightblue" stroke="midnightblue" points="201.77,-160.45 211.95,-157.52 202.17,-153.46 201.77,-160.45"/>
</g>
<!-- Node11&#45;&gt;Node5 -->
<g id="edge11" class="edge">
<title>Node11&#45;&gt;Node5</title>
<path fill="none" stroke="midnightblue" d="M294.21,-175.55C320.5,-189.82 359.73,-211.12 385.58,-225.16"/>
<polygon fill="midnightblue" stroke="midnightblue" points="383.99,-228.28 394.45,-229.97 387.33,-222.13 383.99,-228.28"/>
</g>
<!-- Node12 -->
<g id="node12" class="node">
<title>Node12</title>
<g id="a_node12"><a target="_blank" xlink:href="http://en.cppreference.com/w/cpp/container/vector/push_back.html#" xlink:title=" ">
<polygon fill="white" stroke="black" points="355,-151 355,-170 471,-170 471,-151 355,-151"/>
<text text-anchor="middle" x="413" y="-158" font-family="Helvetica,sans-Serif" font-size="10.00">std::vector::push_back</text>
</a>
</g>
</g>
<!-- Node11&#45;&gt;Node12 -->
<g id="edge12" class="edge">
<title>Node11&#45;&gt;Node12</title>
<path fill="none" stroke="midnightblue" d="M319.03,-160.5C327.34,-160.5 336.03,-160.5 344.62,-160.5"/>
<polygon fill="midnightblue" stroke="midnightblue" points="344.63,-164 354.63,-160.5 344.63,-157 344.63,-164"/>
</g>
</g>
</svg>
