<?xml version="1.0" encoding="UTF-8" standalone="no"?>
<!DOCTYPE svg PUBLIC "-//W3C//DTD SVG 1.1//EN"
 "http://www.w3.org/Graphics/SVG/1.1/DTD/svg11.dtd">
<!-- Generated by graphviz version 2.46.1 (20210213.1702)
 -->
<!-- Title: test Pages: 1 -->
<svg width="479pt" height="405pt"
 viewBox="0.00 0.00 479.00 404.50" xmlns="http://www.w3.org/2000/svg" xmlns:xlink="http://www.w3.org/1999/xlink">
<g id="graph0" class="graph" transform="scale(1 1) rotate(0) translate(4 400.5)">
<title>test</title>
<polygon fill="white" stroke="transparent" points="-4,4 -4,-400.5 475,-400.5 475,4 -4,4"/>
<!-- Node1 -->
<g id="node1" class="node">
<title>Node1</title>
<g id="a_node1"><a xlink:title="Test implementations.">
<polygon fill="#bfbfbf" stroke="black" points="0,-143 0,-162 33,-162 33,-143 0,-143"/>
<text text-anchor="middle" x="16.5" y="-150" font-family="Helvetica,sans-Serif" font-size="10.00">test</text>
</a>
</g>
</g>
<!-- Node2 -->
<g id="node2" class="node">
<title>Node2</title>
<g id="a_node2"><a xlink:href="../../d0/d5b/classdata__structures_1_1_trie.html#a4dbfa35ad40ef0d52f80c6575432c5d4" target="_top" xlink:title=" ">
<polygon fill="white" stroke="black" points="69,-274.5 69,-304.5 176,-304.5 176,-274.5 69,-274.5"/>
<text text-anchor="start" x="77" y="-292.5" font-family="Helvetica,sans-Serif" font-size="10.00">data_structures::Trie</text>
<text text-anchor="middle" x="122.5" y="-281.5" font-family="Helvetica,sans-Serif" font-size="10.00">::delete_word</text>
</a>
</g>
</g>
<!-- Node1&#45;&gt;Node2 -->
<g id="edge1" class="edge">
<title>Node1&#45;&gt;Node2</title>
<path fill="none" stroke="midnightblue" d="M20.03,-162.2C25.74,-182.44 41.31,-229.79 69,-259.5 72.1,-262.83 75.66,-265.89 79.43,-268.68"/>
<polygon fill="midnightblue" stroke="midnightblue" points="77.67,-271.71 87.93,-274.35 81.55,-265.89 77.67,-271.71"/>
</g>
<!-- Node4 -->
<g id="node4" class="node">
<title>Node4</title>
<g id="a_node4"><a target="_blank" xlink:href="http://en.cppreference.com/w/cpp/io/manip/endl.html#" xlink:title=" ">
<polygon fill="white" stroke="black" points="238.5,-187 238.5,-206 292.5,-206 292.5,-187 238.5,-187"/>
<text text-anchor="middle" x="265.5" y="-194" font-family="Helvetica,sans-Serif" font-size="10.00">std::endl</text>
</a>
</g>
</g>
<!-- Node1&#45;&gt;Node4 -->
<g id="edge8" class="edge">
<title>Node1&#45;&gt;Node4</title>
<path fill="none" stroke="midnightblue" d="M20.85,-162.24C27.2,-179 42.78,-212.8 69,-226.5 111.15,-248.52 129.08,-234.24 176,-226.5 181.51,-225.59 206.67,-216.99 228.77,-209.23"/>
<polygon fill="midnightblue" stroke="midnightblue" points="230.04,-212.49 238.3,-205.86 227.71,-205.89 230.04,-212.49"/>
</g>
<!-- Node9 -->
<g id="node9" class="node">
<title>Node9</title>
<g id="a_node9"><a xlink:href="../../d0/d5b/classdata__structures_1_1_trie.html#a7683085adb8a0ca0d183b0fb13ca8454" target="_top" xlink:title=" ">
<polygon fill="white" stroke="black" points="69,-186.5 69,-216.5 176,-216.5 176,-186.5 69,-186.5"/>
<text text-anchor="start" x="77" y="-204.5" font-family="Helvetica,sans-Serif" font-size="10.00">data_structures::Trie</text>
<text text-anchor="middle" x="122.5" y="-193.5" font-family="Helvetica,sans-Serif" font-size="10.00">::insert</text>
</a>
</g>
</g>
<!-- Node1&#45;&gt;Node9 -->
<g id="edge9" class="edge">
<title>Node1&#45;&gt;Node9</title>
<path fill="none" stroke="midnightblue" d="M33.3,-159.94C45.74,-165.81 63.68,-174.26 80.13,-182.01"/>
<polygon fill="midnightblue" stroke="midnightblue" points="79.06,-185.37 89.6,-186.47 82.04,-179.04 79.06,-185.37"/>
</g>
<!-- Node10 -->
<g id="node10" class="node">
<title>Node10</title>
<g id="a_node10"><a xlink:href="../../d0/d5b/classdata__structures_1_1_trie.html#a128a8a3e1f6c17076f1de62314e73bde" target="_top" xlink:title=" ">
<polygon fill="white" stroke="black" points="69,-137.5 69,-167.5 176,-167.5 176,-137.5 69,-137.5"/>
<text text-anchor="start" x="77" y="-155.5" font-family="Helvetica,sans-Serif" font-size="10.00">data_structures::Trie</text>
<text text-anchor="middle" x="122.5" y="-144.5" font-family="Helvetica,sans-Serif" font-size="10.00">::predict_words</text>
</a>
</g>
</g>
<!-- Node1&#45;&gt;Node10 -->
<g id="edge10" class="edge">
<title>Node1&#45;&gt;Node10</title>
<path fill="none" stroke="midnightblue" d="M33.3,-152.5C40.46,-152.5 49.46,-152.5 58.94,-152.5"/>
<polygon fill="midnightblue" stroke="midnightblue" points="58.94,-156 68.94,-152.5 58.94,-149 58.94,-156"/>
</g>
<!-- Node13 -->
<g id="node13" class="node">
<title>Node13</title>
<g id="a_node13"><a xlink:href="../../d0/d5b/classdata__structures_1_1_trie.html#a36f17a2556a26e1565f0a700ab26f1df" target="_top" xlink:title=" ">
<polygon fill="white" stroke="black" points="69,-88.5 69,-118.5 176,-118.5 176,-88.5 69,-88.5"/>
<text text-anchor="start" x="77" y="-106.5" font-family="Helvetica,sans-Serif" font-size="10.00">data_structures::Trie</text>
<text text-anchor="middle" x="122.5" y="-95.5" font-family="Helvetica,sans-Serif" font-size="10.00">::search</text>
</a>
</g>
</g>
<!-- Node1&#45;&gt;Node13 -->
<g id="edge15" class="edge">
<title>Node1&#45;&gt;Node13</title>
<path fill="none" stroke="midnightblue" d="M33.23,-144.75C43.41,-139.76 56.95,-133.18 69,-127.5 72.18,-126 75.47,-124.46 78.79,-122.93"/>
<polygon fill="midnightblue" stroke="midnightblue" points="80.51,-125.99 88.12,-118.62 77.57,-119.63 80.51,-125.99"/>
</g>
<!-- Node14 -->
<g id="node14" class="node">
<title>Node14</title>
<g id="a_node14"><a target="_blank" xlink:href="http://en.cppreference.com/w/cpp/container/vector/size.html#" xlink:title=" ">
<polygon fill="white" stroke="black" points="79,-50 79,-69 166,-69 166,-50 79,-50"/>
<text text-anchor="middle" x="122.5" y="-57" font-family="Helvetica,sans-Serif" font-size="10.00">std::vector::size</text>
</a>
</g>
</g>
<!-- Node1&#45;&gt;Node14 -->
<g id="edge16" class="edge">
<title>Node1&#45;&gt;Node14</title>
<path fill="none" stroke="midnightblue" d="M21.77,-142.91C29.19,-127.26 45.91,-96.23 69,-78.5 71.42,-76.64 74.04,-74.95 76.77,-73.42"/>
<polygon fill="midnightblue" stroke="midnightblue" points="78.32,-76.56 85.78,-69.04 75.26,-70.26 78.32,-76.56"/>
</g>
<!-- Node15 -->
<g id="node15" class="node">
<title>Node15</title>
<g id="a_node15"><a xlink:href="../../d0/d5b/classdata__structures_1_1_trie.html#aa8643602158f988731c71be5d138aeea" target="_top" xlink:title=" ">
<polygon fill="white" stroke="black" points="69,-0.5 69,-30.5 176,-30.5 176,-0.5 69,-0.5"/>
<text text-anchor="start" x="77" y="-18.5" font-family="Helvetica,sans-Serif" font-size="10.00">data_structures::Trie</text>
<text text-anchor="middle" x="122.5" y="-7.5" font-family="Helvetica,sans-Serif" font-size="10.00">::startwith</text>
</a>
</g>
</g>
<!-- Node1&#45;&gt;Node15 -->
<g id="edge17" class="edge">
<title>Node1&#45;&gt;Node15</title>
<path fill="none" stroke="midnightblue" d="M19.57,-142.82C24.56,-121.68 39.09,-70.82 69,-40.5 70.41,-39.07 71.92,-37.71 73.5,-36.43"/>
<polygon fill="midnightblue" stroke="midnightblue" points="75.72,-39.14 81.91,-30.54 71.71,-33.41 75.72,-39.14"/>
</g>
<!-- Node3 -->
<g id="node3" class="node">
<title>Node3</title>
<g id="a_node3"><a target="_blank" xlink:href="http://en.cppreference.com/w/cpp/string/basic_string/back.html#" xlink:title=" ">
<polygon fill="white" stroke="black" points="222,-339 222,-358 309,-358 309,-339 222,-339"/>
<text text-anchor="middle" x="265.5" y="-346" font-family="Helvetica,sans-Serif" font-size="10.00">std::string::back</text>
</a>
</g>
</g>
<!-- Node2&#45;&gt;Node3 -->
<g id="edge2" class="edge">
<title>Node2&#45;&gt;Node3</title>
<path fill="none" stroke="midnightblue" d="M155.19,-304.54C171.95,-312.31 192.94,-321.76 212,-329.5 216.87,-331.48 222.03,-333.47 227.15,-335.38"/>
<polygon fill="midnightblue" stroke="midnightblue" points="226.23,-338.78 236.83,-338.94 228.65,-332.21 226.23,-338.78"/>
</g>
<!-- Node2&#45;&gt;Node4 -->
<g id="edge3" class="edge">
<title>Node2&#45;&gt;Node4</title>
<path fill="none" stroke="midnightblue" d="M154.18,-274.47C161.68,-270.14 169.43,-265.06 176,-259.5 195.29,-243.18 191.38,-230.1 212,-215.5 217.02,-211.95 222.77,-208.99 228.59,-206.55"/>
<polygon fill="midnightblue" stroke="midnightblue" points="230.17,-209.69 238.32,-202.92 227.73,-203.13 230.17,-209.69"/>
</g>
<!-- Node5 -->
<g id="node5" class="node">
<title>Node5</title>
<g id="a_node5"><a target="_blank" xlink:href="http://en.cppreference.com/w/cpp/container/stack/pop.html#" xlink:title=" ">
<polygon fill="white" stroke="black" points="224.5,-301 224.5,-320 306.5,-320 306.5,-301 224.5,-301"/>
<text text-anchor="middle" x="265.5" y="-308" font-family="Helvetica,sans-Serif" font-size="10.00">std::stack::pop</text>
</a>
</g>
</g>
<!-- Node2&#45;&gt;Node5 -->
<g id="edge4" class="edge">
<title>Node2&#45;&gt;Node5</title>
<path fill="none" stroke="midnightblue" d="M176,-297.32C188.48,-299.18 201.77,-301.16 214.15,-303"/>
<polygon fill="midnightblue" stroke="midnightblue" points="213.89,-306.5 224.3,-304.51 214.92,-299.58 213.89,-306.5"/>
</g>
<!-- Node6 -->
<g id="node6" class="node">
<title>Node6</title>
<g id="a_node6"><a target="_blank" xlink:href="http://en.cppreference.com/w/cpp/string/basic_string/pop_back.html#" xlink:title=" ">
<polygon fill="white" stroke="black" points="359,-222 359,-241 467,-241 467,-222 359,-222"/>
<text text-anchor="middle" x="413" y="-229" font-family="Helvetica,sans-Serif" font-size="10.00">std::string::pop_back</text>
</a>
</g>
</g>
<!-- Node2&#45;&gt;Node6 -->
<g id="edge5" class="edge">
<title>Node2&#45;&gt;Node6</title>
<path fill="none" stroke="midnightblue" d="M176.33,-280.51C215.75,-273.63 270.87,-263.62 319,-253.5 333.5,-250.45 349.21,-246.85 363.51,-243.46"/>
<polygon fill="midnightblue" stroke="midnightblue" points="364.73,-246.76 373.64,-241.03 363.1,-239.96 364.73,-246.76"/>
</g>
<!-- Node7 -->
<g id="node7" class="node">
<title>Node7</title>
<g id="a_node7"><a target="_blank" xlink:href="http://en.cppreference.com/w/cpp/container/stack/push.html#" xlink:title=" ">
<polygon fill="white" stroke="black" points="222,-225 222,-244 309,-244 309,-225 222,-225"/>
<text text-anchor="middle" x="265.5" y="-232" font-family="Helvetica,sans-Serif" font-size="10.00">std::stack::push</text>
</a>
</g>
</g>
<!-- Node2&#45;&gt;Node7 -->
<g id="edge6" class="edge">
<title>Node2&#45;&gt;Node7</title>
<path fill="none" stroke="midnightblue" d="M162.03,-274.47C183.43,-266.12 209.81,-255.83 230.45,-247.78"/>
<polygon fill="midnightblue" stroke="midnightblue" points="231.73,-251.04 239.78,-244.14 229.19,-244.52 231.73,-251.04"/>
</g>
<!-- Node8 -->
<g id="node8" class="node">
<title>Node8</title>
<g id="a_node8"><a target="_blank" xlink:href="http://en.cppreference.com/w/cpp/container/stack/top.html#" xlink:title=" ">
<polygon fill="white" stroke="black" points="225.5,-377 225.5,-396 305.5,-396 305.5,-377 225.5,-377"/>
<text text-anchor="middle" x="265.5" y="-384" font-family="Helvetica,sans-Serif" font-size="10.00">std::stack::top</text>
</a>
</g>
</g>
<!-- Node2&#45;&gt;Node8 -->
<g id="edge7" class="edge">
<title>Node2&#45;&gt;Node8</title>
<path fill="none" stroke="midnightblue" d="M137.19,-304.6C153.53,-321.85 182.4,-349.96 212,-367.5 215.42,-369.53 219.09,-371.39 222.85,-373.09"/>
<polygon fill="midnightblue" stroke="midnightblue" points="221.68,-376.4 232.26,-376.99 224.36,-369.93 221.68,-376.4"/>
</g>
<!-- Node10&#45;&gt;Node4 -->
<g id="edge11" class="edge">
<title>Node10&#45;&gt;Node4</title>
<path fill="none" stroke="midnightblue" d="M171.63,-167.52C190.3,-173.35 211.31,-179.9 228.62,-185.3"/>
<polygon fill="midnightblue" stroke="midnightblue" points="227.75,-188.7 238.34,-188.34 229.83,-182.02 227.75,-188.7"/>
</g>
<!-- Node11 -->
<g id="node11" class="node">
<title>Node11</title>
<g id="a_node11"><a xlink:href="../../d0/d5b/classdata__structures_1_1_trie.html#a037c1b2af45d78ff497810590383573f" target="_top" xlink:title=" ">
<polygon fill="white" stroke="black" points="212,-137.5 212,-167.5 319,-167.5 319,-137.5 212,-137.5"/>
<text text-anchor="start" x="220" y="-155.5" font-family="Helvetica,sans-Serif" font-size="10.00">data_structures::Trie</text>
<text text-anchor="middle" x="265.5" y="-144.5" font-family="Helvetica,sans-Serif" font-size="10.00">::get_all_words</text>
</a>
</g>
</g>
<!-- Node10&#45;&gt;Node11 -->
<g id="edge12" class="edge">
<title>Node10&#45;&gt;Node11</title>
<path fill="none" stroke="midnightblue" d="M176,-152.5C184.44,-152.5 193.26,-152.5 201.9,-152.5"/>
<polygon fill="midnightblue" stroke="midnightblue" points="201.95,-156 211.95,-152.5 201.95,-149 201.95,-156"/>
</g>
<!-- Node11&#45;&gt;Node6 -->
<g id="edge13" class="edge">
<title>Node11&#45;&gt;Node6</title>
<path fill="none" stroke="midnightblue" d="M299.19,-167.56C305.8,-170.75 312.66,-174.16 319,-177.5 342.74,-190.02 369.13,-205.5 387.72,-216.67"/>
<polygon fill="midnightblue" stroke="midnightblue" points="386.05,-219.75 396.42,-221.93 389.67,-213.76 386.05,-219.75"/>
</g>
<!-- Node12 -->
<g id="node12" class="node">
<title>Node12</title>
<g id="a_node12"><a target="_blank" xlink:href="http://en.cppreference.com/w/cpp/container/vector/push_back.html#" xlink:title=" ">
<polygon fill="white" stroke="black" points="355,-143 355,-162 471,-162 471,-143 355,-143"/>
<text text-anchor="middle" x="413" y="-150" font-family="Helvetica,sans-Serif" font-size="10.00">std::vector::push_back</text>
</a>
</g>
</g>
<!-- Node11&#45;&gt;Node12 -->
<g id="edge14" class="edge">
<title>Node11&#45;&gt;Node12</title>
<path fill="none" stroke="midnightblue" d="M319.03,-152.5C327.34,-152.5 336.03,-152.5 344.62,-152.5"/>
<polygon fill="midnightblue" stroke="midnightblue" points="344.63,-156 354.63,-152.5 344.63,-149 344.63,-156"/>
</g>
</g>
</svg>
