<?xml version="1.0" encoding="UTF-8" standalone="no"?>
<!DOCTYPE svg PUBLIC "-//W3C//DTD SVG 1.1//EN"
 "http://www.w3.org/Graphics/SVG/1.1/DTD/svg11.dtd">
<!-- Generated by graphviz version 2.46.1 (20210213.1702)
 -->
<!-- Title: main Pages: 1 -->
<!--zoomable 405 -->
<svg id="main" version="1.1" xmlns="http://www.w3.org/2000/svg" xmlns:xlink="http://www.w3.org/1999/xlink" xml:space="preserve" onload="init(evt)">
<style type="text/css"><![CDATA[
.edge:hover path { stroke: red; }
.edge:hover polygon { stroke: red; fill: red; }
]]></style>
<script type="text/javascript"><![CDATA[
var edges = document.getElementsByTagName('g');
if (edges && edges.length) {
  for (var i=0;i<edges.length;i++) {
    if (edges[i].id.substr(0,4)=='edge') {
      edges[i].setAttribute('class','edge');
    }
  }
}
]]></script>
        <defs>
                <circle id="rim" cx="0" cy="0" r="7"/>
                <circle id="rim2" cx="0" cy="0" r="3.5"/>
                <g id="zoomPlus">
                        <use xlink:href="#rim" fill="#404040">
                                <set attributeName="fill" to="#808080" begin="zoomplus.mouseover" end="zoomplus.mouseout"/>
                        </use>
                        <path d="M-4,0h8M0,-4v8" fill="none" stroke="white" stroke-width="1.5" pointer-events="none"/>
                </g>
                <g id="zoomMin">
                        <use xlink:href="#rim" fill="#404040">
                                <set attributeName="fill" to="#808080" begin="zoomminus.mouseover" end="zoomminus.mouseout"/>
                        </use>
                        <path d="M-4,0h8" fill="none" stroke="white" stroke-width="1.5" pointer-events="none"/>
                </g>
                <g id="dirArrow">
                        <path fill="none" stroke="white" stroke-width="1.5" d="M0,-3.0v7 M-2.5,-0.5L0,-3.0L2.5,-0.5"/>
                </g>
               <g id="resetDef">
                       <use xlink:href="#rim2" fill="#404040">
                               <set attributeName="fill" to="#808080" begin="reset.mouseover" end="reset.mouseout"/>
                       </use>
               </g>
        </defs>

<script type="text/javascript">
var viewWidth = 553;
var viewHeight = 405;
var sectionId = 'dynsection-1';
</script>
<script xlink:href="../../svgpan.js"/>
<svg id="graph" class="graph">
<g id="viewport">
<title>main</title>
<polygon fill="white" stroke="transparent" points="-4,4 -4,-400.5 549,-400.5 549,4 -4,4"/>
<!-- Node1 -->
<g id="node1" class="node">
<title>Node1</title>
<g id="a_node1"><a xlink:title="Main function.">
<polygon fill="#bfbfbf" stroke="black" points="0,-143 0,-162 38,-162 38,-143 0,-143"/>
<text text-anchor="middle" x="19" y="-150" font-family="Helvetica,sans-Serif" font-size="10.00">main</text>
</a>
</g>
</g>
<!-- Node2 -->
<g id="node2" class="node">
<title>Node2</title>
<g id="a_node2"><a xlink:href="../../d5/d8a/trie__using__hashmap_8cpp.html#aa8dca7b867074164d5f45b0f3851269d" target="_top" xlink:title="Test implementations.">
<polygon fill="white" stroke="black" points="74,-143 74,-162 107,-162 107,-143 74,-143"/>
<text text-anchor="middle" x="90.5" y="-150" font-family="Helvetica,sans-Serif" font-size="10.00">test</text>
</a>
</g>
</g>
<!-- Node1&#45;&gt;Node2 -->
<g id="edge1" class="edge">
<title>Node1&#45;&gt;Node2</title>
<path fill="none" stroke="midnightblue" d="M38.26,-152.5C46.07,-152.5 55.31,-152.5 63.79,-152.5"/>
<polygon fill="midnightblue" stroke="midnightblue" points="63.95,-156 73.95,-152.5 63.95,-149 63.95,-156"/>
</g>
<!-- Node3 -->
<g id="node3" class="node">
<title>Node3</title>
<g id="a_node3"><a xlink:href="../../d0/d5b/classdata__structures_1_1_trie.html#a4dbfa35ad40ef0d52f80c6575432c5d4" target="_top" xlink:title=" ">
<polygon fill="white" stroke="black" points="143,-274.5 143,-304.5 250,-304.5 250,-274.5 143,-274.5"/>
<text text-anchor="start" x="151" y="-292.5" font-family="Helvetica,sans-Serif" font-size="10.00">data_structures::Trie</text>
<text text-anchor="middle" x="196.5" y="-281.5" font-family="Helvetica,sans-Serif" font-size="10.00">::delete_word</text>
</a>
</g>
</g>
<!-- Node2&#45;&gt;Node3 -->
<g id="edge2" class="edge">
<title>Node2&#45;&gt;Node3</title>
<path fill="none" stroke="midnightblue" d="M94.03,-162.2C99.74,-182.44 115.31,-229.79 143,-259.5 146.1,-262.83 149.66,-265.89 153.43,-268.68"/>
<polygon fill="midnightblue" stroke="midnightblue" points="151.67,-271.71 161.93,-274.35 155.55,-265.89 151.67,-271.71"/>
</g>
<!-- Node5 -->
<g id="node5" class="node">
<title>Node5</title>
<g id="a_node5"><a target="_blank" xlink:href="http://en.cppreference.com/w/cpp/io/manip/endl.html#" xlink:title=" ">
<polygon fill="white" stroke="black" points="312.5,-187 312.5,-206 366.5,-206 366.5,-187 312.5,-187"/>
<text text-anchor="middle" x="339.5" y="-194" font-family="Helvetica,sans-Serif" font-size="10.00">std::endl</text>
</a>
</g>
</g>
<!-- Node2&#45;&gt;Node5 -->
<g id="edge9" class="edge">
<title>Node2&#45;&gt;Node5</title>
<path fill="none" stroke="midnightblue" d="M94.85,-162.24C101.2,-179 116.78,-212.8 143,-226.5 185.15,-248.52 203.08,-234.24 250,-226.5 255.51,-225.59 280.67,-216.99 302.77,-209.23"/>
<polygon fill="midnightblue" stroke="midnightblue" points="304.04,-212.49 312.3,-205.86 301.71,-205.89 304.04,-212.49"/>
</g>
<!-- Node10 -->
<g id="node10" class="node">
<title>Node10</title>
<g id="a_node10"><a xlink:href="../../d0/d5b/classdata__structures_1_1_trie.html#a7683085adb8a0ca0d183b0fb13ca8454" target="_top" xlink:title=" ">
<polygon fill="white" stroke="black" points="143,-186.5 143,-216.5 250,-216.5 250,-186.5 143,-186.5"/>
<text text-anchor="start" x="151" y="-204.5" font-family="Helvetica,sans-Serif" font-size="10.00">data_structures::Trie</text>
<text text-anchor="middle" x="196.5" y="-193.5" font-family="Helvetica,sans-Serif" font-size="10.00">::insert</text>
</a>
</g>
</g>
<!-- Node2&#45;&gt;Node10 -->
<g id="edge10" class="edge">
<title>Node2&#45;&gt;Node10</title>
<path fill="none" stroke="midnightblue" d="M107.3,-159.94C119.74,-165.81 137.68,-174.26 154.13,-182.01"/>
<polygon fill="midnightblue" stroke="midnightblue" points="153.06,-185.37 163.6,-186.47 156.04,-179.04 153.06,-185.37"/>
</g>
<!-- Node11 -->
<g id="node11" class="node">
<title>Node11</title>
<g id="a_node11"><a xlink:href="../../d0/d5b/classdata__structures_1_1_trie.html#a128a8a3e1f6c17076f1de62314e73bde" target="_top" xlink:title=" ">
<polygon fill="white" stroke="black" points="143,-137.5 143,-167.5 250,-167.5 250,-137.5 143,-137.5"/>
<text text-anchor="start" x="151" y="-155.5" font-family="Helvetica,sans-Serif" font-size="10.00">data_structures::Trie</text>
<text text-anchor="middle" x="196.5" y="-144.5" font-family="Helvetica,sans-Serif" font-size="10.00">::predict_words</text>
</a>
</g>
</g>
<!-- Node2&#45;&gt;Node11 -->
<g id="edge11" class="edge">
<title>Node2&#45;&gt;Node11</title>
<path fill="none" stroke="midnightblue" d="M107.3,-152.5C114.46,-152.5 123.46,-152.5 132.94,-152.5"/>
<polygon fill="midnightblue" stroke="midnightblue" points="132.94,-156 142.94,-152.5 132.94,-149 132.94,-156"/>
</g>
<!-- Node14 -->
<g id="node14" class="node">
<title>Node14</title>
<g id="a_node14"><a xlink:href="../../d0/d5b/classdata__structures_1_1_trie.html#a36f17a2556a26e1565f0a700ab26f1df" target="_top" xlink:title=" ">
<polygon fill="white" stroke="black" points="143,-88.5 143,-118.5 250,-118.5 250,-88.5 143,-88.5"/>
<text text-anchor="start" x="151" y="-106.5" font-family="Helvetica,sans-Serif" font-size="10.00">data_structures::Trie</text>
<text text-anchor="middle" x="196.5" y="-95.5" font-family="Helvetica,sans-Serif" font-size="10.00">::search</text>
</a>
</g>
</g>
<!-- Node2&#45;&gt;Node14 -->
<g id="edge16" class="edge">
<title>Node2&#45;&gt;Node14</title>
<path fill="none" stroke="midnightblue" d="M107.23,-144.75C117.41,-139.76 130.95,-133.18 143,-127.5 146.18,-126 149.47,-124.46 152.79,-122.93"/>
<polygon fill="midnightblue" stroke="midnightblue" points="154.51,-125.99 162.12,-118.62 151.57,-119.63 154.51,-125.99"/>
</g>
<!-- Node15 -->
<g id="node15" class="node">
<title>Node15</title>
<g id="a_node15"><a target="_blank" xlink:href="http://en.cppreference.com/w/cpp/container/vector/size.html#" xlink:title=" ">
<polygon fill="white" stroke="black" points="153,-50 153,-69 240,-69 240,-50 153,-50"/>
<text text-anchor="middle" x="196.5" y="-57" font-family="Helvetica,sans-Serif" font-size="10.00">std::vector::size</text>
</a>
</g>
</g>
<!-- Node2&#45;&gt;Node15 -->
<g id="edge17" class="edge">
<title>Node2&#45;&gt;Node15</title>
<path fill="none" stroke="midnightblue" d="M95.77,-142.91C103.19,-127.26 119.91,-96.23 143,-78.5 145.42,-76.64 148.04,-74.95 150.77,-73.42"/>
<polygon fill="midnightblue" stroke="midnightblue" points="152.32,-76.56 159.78,-69.04 149.26,-70.26 152.32,-76.56"/>
</g>
<!-- Node16 -->
<g id="node16" class="node">
<title>Node16</title>
<g id="a_node16"><a xlink:href="../../d0/d5b/classdata__structures_1_1_trie.html#aa8643602158f988731c71be5d138aeea" target="_top" xlink:title=" ">
<polygon fill="white" stroke="black" points="143,-0.5 143,-30.5 250,-30.5 250,-0.5 143,-0.5"/>
<text text-anchor="start" x="151" y="-18.5" font-family="Helvetica,sans-Serif" font-size="10.00">data_structures::Trie</text>
<text text-anchor="middle" x="196.5" y="-7.5" font-family="Helvetica,sans-Serif" font-size="10.00">::startwith</text>
</a>
</g>
</g>
<!-- Node2&#45;&gt;Node16 -->
<g id="edge18" class="edge">
<title>Node2&#45;&gt;Node16</title>
<path fill="none" stroke="midnightblue" d="M93.57,-142.82C98.56,-121.68 113.09,-70.82 143,-40.5 144.41,-39.07 145.92,-37.71 147.5,-36.43"/>
<polygon fill="midnightblue" stroke="midnightblue" points="149.72,-39.14 155.91,-30.54 145.71,-33.41 149.72,-39.14"/>
</g>
<!-- Node4 -->
<g id="node4" class="node">
<title>Node4</title>
<g id="a_node4"><a target="_blank" xlink:href="http://en.cppreference.com/w/cpp/string/basic_string/back.html#" xlink:title=" ">
<polygon fill="white" stroke="black" points="296,-339 296,-358 383,-358 383,-339 296,-339"/>
<text text-anchor="middle" x="339.5" y="-346" font-family="Helvetica,sans-Serif" font-size="10.00">std::string::back</text>
</a>
</g>
</g>
<!-- Node3&#45;&gt;Node4 -->
<g id="edge3" class="edge">
<title>Node3&#45;&gt;Node4</title>
<path fill="none" stroke="midnightblue" d="M229.19,-304.54C245.95,-312.31 266.94,-321.76 286,-329.5 290.87,-331.48 296.03,-333.47 301.15,-335.38"/>
<polygon fill="midnightblue" stroke="midnightblue" points="300.23,-338.78 310.83,-338.94 302.65,-332.21 300.23,-338.78"/>
</g>
<!-- Node3&#45;&gt;Node5 -->
<g id="edge4" class="edge">
<title>Node3&#45;&gt;Node5</title>
<path fill="none" stroke="midnightblue" d="M228.18,-274.47C235.68,-270.14 243.43,-265.06 250,-259.5 269.29,-243.18 265.38,-230.1 286,-215.5 291.02,-211.95 296.77,-208.99 302.59,-206.55"/>
<polygon fill="midnightblue" stroke="midnightblue" points="304.17,-209.69 312.32,-202.92 301.73,-203.13 304.17,-209.69"/>
</g>
<!-- Node6 -->
<g id="node6" class="node">
<title>Node6</title>
<g id="a_node6"><a target="_blank" xlink:href="http://en.cppreference.com/w/cpp/container/stack/pop.html#" xlink:title=" ">
<polygon fill="white" stroke="black" points="298.5,-301 298.5,-320 380.5,-320 380.5,-301 298.5,-301"/>
<text text-anchor="middle" x="339.5" y="-308" font-family="Helvetica,sans-Serif" font-size="10.00">std::stack::pop</text>
</a>
</g>
</g>
<!-- Node3&#45;&gt;Node6 -->
<g id="edge5" class="edge">
<title>Node3&#45;&gt;Node6</title>
<path fill="none" stroke="midnightblue" d="M250,-297.32C262.48,-299.18 275.77,-301.16 288.15,-303"/>
<polygon fill="midnightblue" stroke="midnightblue" points="287.89,-306.5 298.3,-304.51 288.92,-299.58 287.89,-306.5"/>
</g>
<!-- Node7 -->
<g id="node7" class="node">
<title>Node7</title>
<g id="a_node7"><a target="_blank" xlink:href="http://en.cppreference.com/w/cpp/string/basic_string/pop_back.html#" xlink:title=" ">
<polygon fill="white" stroke="black" points="433,-222 433,-241 541,-241 541,-222 433,-222"/>
<text text-anchor="middle" x="487" y="-229" font-family="Helvetica,sans-Serif" font-size="10.00">std::string::pop_back</text>
</a>
</g>
</g>
<!-- Node3&#45;&gt;Node7 -->
<g id="edge6" class="edge">
<title>Node3&#45;&gt;Node7</title>
<path fill="none" stroke="midnightblue" d="M250.33,-280.51C289.75,-273.63 344.87,-263.62 393,-253.5 407.5,-250.45 423.21,-246.85 437.51,-243.46"/>
<polygon fill="midnightblue" stroke="midnightblue" points="438.73,-246.76 447.64,-241.03 437.1,-239.96 438.73,-246.76"/>
</g>
<!-- Node8 -->
<g id="node8" class="node">
<title>Node8</title>
<g id="a_node8"><a target="_blank" xlink:href="http://en.cppreference.com/w/cpp/container/stack/push.html#" xlink:title=" ">
<polygon fill="white" stroke="black" points="296,-225 296,-244 383,-244 383,-225 296,-225"/>
<text text-anchor="middle" x="339.5" y="-232" font-family="Helvetica,sans-Serif" font-size="10.00">std::stack::push</text>
</a>
</g>
</g>
<!-- Node3&#45;&gt;Node8 -->
<g id="edge7" class="edge">
<title>Node3&#45;&gt;Node8</title>
<path fill="none" stroke="midnightblue" d="M236.03,-274.47C257.43,-266.12 283.81,-255.83 304.45,-247.78"/>
<polygon fill="midnightblue" stroke="midnightblue" points="305.73,-251.04 313.78,-244.14 303.19,-244.52 305.73,-251.04"/>
</g>
<!-- Node9 -->
<g id="node9" class="node">
<title>Node9</title>
<g id="a_node9"><a target="_blank" xlink:href="http://en.cppreference.com/w/cpp/container/stack/top.html#" xlink:title=" ">
<polygon fill="white" stroke="black" points="299.5,-377 299.5,-396 379.5,-396 379.5,-377 299.5,-377"/>
<text text-anchor="middle" x="339.5" y="-384" font-family="Helvetica,sans-Serif" font-size="10.00">std::stack::top</text>
</a>
</g>
</g>
<!-- Node3&#45;&gt;Node9 -->
<g id="edge8" class="edge">
<title>Node3&#45;&gt;Node9</title>
<path fill="none" stroke="midnightblue" d="M211.19,-304.6C227.53,-321.85 256.4,-349.96 286,-367.5 289.42,-369.53 293.09,-371.39 296.85,-373.09"/>
<polygon fill="midnightblue" stroke="midnightblue" points="295.68,-376.4 306.26,-376.99 298.36,-369.93 295.68,-376.4"/>
</g>
<!-- Node11&#45;&gt;Node5 -->
<g id="edge12" class="edge">
<title>Node11&#45;&gt;Node5</title>
<path fill="none" stroke="midnightblue" d="M245.63,-167.52C264.3,-173.35 285.31,-179.9 302.62,-185.3"/>
<polygon fill="midnightblue" stroke="midnightblue" points="301.75,-188.7 312.34,-188.34 303.83,-182.02 301.75,-188.7"/>
</g>
<!-- Node12 -->
<g id="node12" class="node">
<title>Node12</title>
<g id="a_node12"><a xlink:href="../../d0/d5b/classdata__structures_1_1_trie.html#a037c1b2af45d78ff497810590383573f" target="_top" xlink:title=" ">
<polygon fill="white" stroke="black" points="286,-137.5 286,-167.5 393,-167.5 393,-137.5 286,-137.5"/>
<text text-anchor="start" x="294" y="-155.5" font-family="Helvetica,sans-Serif" font-size="10.00">data_structures::Trie</text>
<text text-anchor="middle" x="339.5" y="-144.5" font-family="Helvetica,sans-Serif" font-size="10.00">::get_all_words</text>
</a>
</g>
</g>
<!-- Node11&#45;&gt;Node12 -->
<g id="edge13" class="edge">
<title>Node11&#45;&gt;Node12</title>
<path fill="none" stroke="midnightblue" d="M250,-152.5C258.44,-152.5 267.26,-152.5 275.9,-152.5"/>
<polygon fill="midnightblue" stroke="midnightblue" points="275.95,-156 285.95,-152.5 275.95,-149 275.95,-156"/>
</g>
<!-- Node12&#45;&gt;Node7 -->
<g id="edge14" class="edge">
<title>Node12&#45;&gt;Node7</title>
<path fill="none" stroke="midnightblue" d="M373.19,-167.56C379.8,-170.75 386.66,-174.16 393,-177.5 416.74,-190.02 443.13,-205.5 461.72,-216.67"/>
<polygon fill="midnightblue" stroke="midnightblue" points="460.05,-219.75 470.42,-221.93 463.67,-213.76 460.05,-219.75"/>
</g>
<!-- Node13 -->
<g id="node13" class="node">
<title>Node13</title>
<g id="a_node13"><a target="_blank" xlink:href="http://en.cppreference.com/w/cpp/container/vector/push_back.html#" xlink:title=" ">
<polygon fill="white" stroke="black" points="429,-143 429,-162 545,-162 545,-143 429,-143"/>
<text text-anchor="middle" x="487" y="-150" font-family="Helvetica,sans-Serif" font-size="10.00">std::vector::push_back</text>
</a>
</g>
</g>
<!-- Node12&#45;&gt;Node13 -->
<g id="edge15" class="edge">
<title>Node12&#45;&gt;Node13</title>
<path fill="none" stroke="midnightblue" d="M393.03,-152.5C401.34,-152.5 410.03,-152.5 418.62,-152.5"/>
<polygon fill="midnightblue" stroke="midnightblue" points="418.63,-156 428.63,-152.5 418.63,-149 418.63,-156"/>
</g>
</g>
</svg>
        <g id="navigator" transform="translate(0 0)" fill="#404254">
                <rect fill="#f2f5e9" fill-opacity="0.5" stroke="#606060" stroke-width=".5" x="0" y="0" width="60" height="60"/>
                <use id="zoomplus" xlink:href="#zoomPlus" x="17" y="9" onmousedown="handleZoom(evt,'in')"/>
                <use id="zoomminus" xlink:href="#zoomMin" x="42" y="9" onmousedown="handleZoom(evt,'out')"/>
                <use id="reset" xlink:href="#resetDef" x="30" y="36" onmousedown="handleReset()"/>
                <g id="arrowUp" xlink:href="#dirArrow" transform="translate(30 24)" onmousedown="handlePan(0,-1)">
                  <use xlink:href="#rim" fill="#404040">
                        <set attributeName="fill" to="#808080" begin="arrowUp.mouseover" end="arrowUp.mouseout"/>
                  </use>
                  <path fill="none" stroke="white" stroke-width="1.5" d="M0,-3.0v7 M-2.5,-0.5L0,-3.0L2.5,-0.5"/>
                </g>
                <g id="arrowRight" xlink:href="#dirArrow" transform="rotate(90) translate(36 -43)" onmousedown="handlePan(1,0)">
                  <use xlink:href="#rim" fill="#404040">
                        <set attributeName="fill" to="#808080" begin="arrowRight.mouseover" end="arrowRight.mouseout"/>
                  </use>
                  <path fill="none" stroke="white" stroke-width="1.5" d="M0,-3.0v7 M-2.5,-0.5L0,-3.0L2.5,-0.5"/>
                </g>
                <g id="arrowDown" xlink:href="#dirArrow" transform="rotate(180) translate(-30 -48)" onmousedown="handlePan(0,1)">
                  <use xlink:href="#rim" fill="#404040">
                        <set attributeName="fill" to="#808080" begin="arrowDown.mouseover" end="arrowDown.mouseout"/>
                  </use>
                  <path fill="none" stroke="white" stroke-width="1.5" d="M0,-3.0v7 M-2.5,-0.5L0,-3.0L2.5,-0.5"/>
                </g>
                <g id="arrowLeft" xlink:href="#dirArrow" transform="rotate(270) translate(-36 17)" onmousedown="handlePan(-1,0)">
                  <use xlink:href="#rim" fill="#404040">
                        <set attributeName="fill" to="#808080" begin="arrowLeft.mouseover" end="arrowLeft.mouseout"/>
                  </use>
                  <path fill="none" stroke="white" stroke-width="1.5" d="M0,-3.0v7 M-2.5,-0.5L0,-3.0L2.5,-0.5"/>
                </g>
        </g>
        <svg viewBox="0 0 15 15" width="100%" height="30px" preserveAspectRatio="xMaxYMin meet">
         <g id="arrow_out" transform="scale(0.3 0.3)">
          <a xlink:href="trie__using__hashmap_8cpp_ae66f6b31b5ad750f1fe042a706a4e3d4_cgraph_org.svg" target="_base">
           <rect id="button" ry="5" rx="5" y="6" x="6" height="38" width="38"
                fill="#f2f5e9" fill-opacity="0.5" stroke="#606060" stroke-width="1.0"/>
           <path id="arrow"
             d="M 11.500037,31.436501 C 11.940474,20.09759 22.043105,11.32322 32.158766,21.979434 L 37.068811,17.246167 C 37.068811,17.246167 37.088388,32 37.088388,32 L 22.160133,31.978069 C 22.160133,31.978069 26.997745,27.140456 26.997745,27.140456 C 18.528582,18.264221 13.291696,25.230495 11.500037,31.436501 z"
             style="fill:#404040;"/>
          </a>
         </g>
        </svg>
</svg>
