<?xml version="1.0" encoding="UTF-8" standalone="no"?>
<!DOCTYPE svg PUBLIC "-//W3C//DTD SVG 1.1//EN"
 "http://www.w3.org/Graphics/SVG/1.1/DTD/svg11.dtd">
<!-- Generated by graphviz version 2.46.1 (20210213.1702)
 -->
<!-- Title: data_structures::Trie::Node Pages: 1 -->
<svg width="134pt" height="217pt"
 viewBox="0.00 0.00 134.00 217.00" xmlns="http://www.w3.org/2000/svg" xmlns:xlink="http://www.w3.org/1999/xlink">
<g id="graph0" class="graph" transform="scale(1 1) rotate(0) translate(4 213)">
<title>data_structures::Trie::Node</title>
<polygon fill="white" stroke="transparent" points="-4,4 -4,-213 130,-213 130,4 -4,4"/>
<!-- Node1 -->
<g id="node1" class="node">
<title>Node1</title>
<g id="a_node1"><a xlink:title="struct representing nodes in the trie">
<polygon fill="#bfbfbf" stroke="black" points="9.5,-0.5 9.5,-30.5 116.5,-30.5 116.5,-0.5 9.5,-0.5"/>
<text text-anchor="start" x="17.5" y="-18.5" font-family="Helvetica,sans-Serif" font-size="10.00">data_structures::Trie</text>
<text text-anchor="middle" x="63" y="-7.5" font-family="Helvetica,sans-Serif" font-size="10.00">::Node</text>
</a>
</g>
</g>
<!-- Node2 -->
<g id="node2" class="node">
<title>Node2</title>
<g id="a_node2"><a target="_blank" xlink:href="http://en.cppreference.com/w/cpp/container/unordered_map.html" xlink:title=" ">
<polygon fill="white" stroke="black" points="4,-78.5 4,-130.5 122,-130.5 122,-78.5 4,-78.5"/>
<text text-anchor="start" x="12" y="-118.5" font-family="Helvetica,sans-Serif" font-size="10.00">std::unordered_map</text>
<text text-anchor="start" x="12" y="-107.5" font-family="Helvetica,sans-Serif" font-size="10.00">&lt; char16_t, std::shared</text>
<text text-anchor="start" x="12" y="-96.5" font-family="Helvetica,sans-Serif" font-size="10.00">_ptr&lt; data_structures::</text>
<text text-anchor="middle" x="63" y="-85.5" font-family="Helvetica,sans-Serif" font-size="10.00">Trie::Node &gt; &gt;</text>
</a>
</g>
</g>
<!-- Node2&#45;&gt;Node1 -->
<g id="edge1" class="edge">
<title>Node2&#45;&gt;Node1</title>
<path fill="none" stroke="#9a32cd" stroke-dasharray="5,2" d="M63,-68.15C63,-55.05 63,-40.93 63,-30.77"/>
<polygon fill="#9a32cd" stroke="#9a32cd" points="59.5,-68.34 63,-78.34 66.5,-68.34 59.5,-68.34"/>
<text text-anchor="middle" x="81.5" y="-52" font-family="Helvetica,sans-Serif" font-size="10.00"> children</text>
</g>
<!-- Node3 -->
<g id="node3" class="node">
<title>Node3</title>
<g id="a_node3"><a target="_blank" xlink:href="http://en.cppreference.com/w/cpp/memory/shared_ptr.html" xlink:title=" ">
<polygon fill="white" stroke="black" points="0,-178.5 0,-208.5 126,-208.5 126,-178.5 0,-178.5"/>
<text text-anchor="start" x="8" y="-196.5" font-family="Helvetica,sans-Serif" font-size="10.00">std::shared_ptr&lt; data</text>
<text text-anchor="middle" x="63" y="-185.5" font-family="Helvetica,sans-Serif" font-size="10.00">_structures::Trie::Node &gt;</text>
</a>
</g>
</g>
<!-- Node3&#45;&gt;Node2 -->
<g id="edge2" class="edge">
<title>Node3&#45;&gt;Node2</title>
<path fill="none" stroke="#9a32cd" stroke-dasharray="5,2" d="M63,-167.85C63,-156.26 63,-142.46 63,-130.8"/>
<polygon fill="#9a32cd" stroke="#9a32cd" points="59.5,-168.13 63,-178.13 66.5,-168.13 59.5,-168.13"/>
<text text-anchor="middle" x="84.5" y="-152" font-family="Helvetica,sans-Serif" font-size="10.00"> elements</text>
</g>
</g>
</svg>
