<?xml version="1.0" encoding="UTF-8" standalone="no"?>
<!DOCTYPE svg PUBLIC "-//W3C//DTD SVG 1.1//EN"
 "http://www.w3.org/Graphics/SVG/1.1/DTD/svg11.dtd">
<!-- Generated by graphviz version 2.46.1 (20210213.1702)
 -->
<!-- Title: data_structures::Trie::delete_word Pages: 1 -->
<svg width="259pt" height="180pt"
 viewBox="0.00 0.00 259.00 180.00" xmlns="http://www.w3.org/2000/svg" xmlns:xlink="http://www.w3.org/1999/xlink">
<g id="graph0" class="graph" transform="scale(1 1) rotate(0) translate(4 176)">
<title>data_structures::Trie::delete_word</title>
<polygon fill="white" stroke="transparent" points="-4,4 -4,-176 255,-176 255,4 -4,4"/>
<!-- Node1 -->
<g id="node1" class="node">
<title>Node1</title>
<g id="a_node1"><a xlink:title="delete a word/string from a trie">
<polygon fill="#bfbfbf" stroke="black" points="0,-71 0,-101 107,-101 107,-71 0,-71"/>
<text text-anchor="start" x="8" y="-89" font-family="Helvetica,sans-Serif" font-size="10.00">data_structures::Trie</text>
<text text-anchor="middle" x="53.5" y="-78" font-family="Helvetica,sans-Serif" font-size="10.00">::delete_word</text>
</a>
</g>
</g>
<!-- Node2 -->
<g id="node2" class="node">
<title>Node2</title>
<g id="a_node2"><a target="_blank" xlink:href="http://en.cppreference.com/w/cpp/string/basic_string/back.html#" xlink:title=" ">
<polygon fill="white" stroke="black" points="153.5,-152.5 153.5,-171.5 240.5,-171.5 240.5,-152.5 153.5,-152.5"/>
<text text-anchor="middle" x="197" y="-159.5" font-family="Helvetica,sans-Serif" font-size="10.00">std::string::back</text>
</a>
</g>
</g>
<!-- Node1&#45;&gt;Node2 -->
<g id="edge1" class="edge">
<title>Node1&#45;&gt;Node2</title>
<path fill="none" stroke="midnightblue" d="M75.16,-101.24C92.6,-113.62 118.58,-130.95 143,-143 147.11,-145.02 151.48,-146.94 155.89,-148.73"/>
<polygon fill="midnightblue" stroke="midnightblue" points="154.92,-152.11 165.51,-152.41 157.43,-145.57 154.92,-152.11"/>
</g>
<!-- Node3 -->
<g id="node3" class="node">
<title>Node3</title>
<g id="a_node3"><a target="_blank" xlink:href="http://en.cppreference.com/w/cpp/container/stack/pop.html#" xlink:title=" ">
<polygon fill="white" stroke="black" points="156,-114.5 156,-133.5 238,-133.5 238,-114.5 156,-114.5"/>
<text text-anchor="middle" x="197" y="-121.5" font-family="Helvetica,sans-Serif" font-size="10.00">std::stack::pop</text>
</a>
</g>
</g>
<!-- Node1&#45;&gt;Node3 -->
<g id="edge2" class="edge">
<title>Node1&#45;&gt;Node3</title>
<path fill="none" stroke="midnightblue" d="M107.19,-100.15C121.48,-103.99 136.82,-108.11 150.67,-111.83"/>
<polygon fill="midnightblue" stroke="midnightblue" points="149.88,-115.24 160.45,-114.45 151.7,-108.48 149.88,-115.24"/>
</g>
<!-- Node4 -->
<g id="node4" class="node">
<title>Node4</title>
<g id="a_node4"><a target="_blank" xlink:href="http://en.cppreference.com/w/cpp/string/basic_string/pop_back.html#" xlink:title=" ">
<polygon fill="white" stroke="black" points="143,-76.5 143,-95.5 251,-95.5 251,-76.5 143,-76.5"/>
<text text-anchor="middle" x="197" y="-83.5" font-family="Helvetica,sans-Serif" font-size="10.00">std::string::pop_back</text>
</a>
</g>
</g>
<!-- Node1&#45;&gt;Node4 -->
<g id="edge3" class="edge">
<title>Node1&#45;&gt;Node4</title>
<path fill="none" stroke="midnightblue" d="M107.19,-86C115.46,-86 124.08,-86 132.56,-86"/>
<polygon fill="midnightblue" stroke="midnightblue" points="132.79,-89.5 142.79,-86 132.79,-82.5 132.79,-89.5"/>
</g>
<!-- Node5 -->
<g id="node5" class="node">
<title>Node5</title>
<g id="a_node5"><a target="_blank" xlink:href="http://en.cppreference.com/w/cpp/container/stack/push.html#" xlink:title=" ">
<polygon fill="white" stroke="black" points="153.5,-38.5 153.5,-57.5 240.5,-57.5 240.5,-38.5 153.5,-38.5"/>
<text text-anchor="middle" x="197" y="-45.5" font-family="Helvetica,sans-Serif" font-size="10.00">std::stack::push</text>
</a>
</g>
</g>
<!-- Node1&#45;&gt;Node5 -->
<g id="edge4" class="edge">
<title>Node1&#45;&gt;Node5</title>
<path fill="none" stroke="midnightblue" d="M107.19,-71.85C121.48,-68.01 136.82,-63.89 150.67,-60.17"/>
<polygon fill="midnightblue" stroke="midnightblue" points="151.7,-63.52 160.45,-57.55 149.88,-56.76 151.7,-63.52"/>
</g>
<!-- Node6 -->
<g id="node6" class="node">
<title>Node6</title>
<g id="a_node6"><a target="_blank" xlink:href="http://en.cppreference.com/w/cpp/container/stack/top.html#" xlink:title=" ">
<polygon fill="white" stroke="black" points="157,-0.5 157,-19.5 237,-19.5 237,-0.5 157,-0.5"/>
<text text-anchor="middle" x="197" y="-7.5" font-family="Helvetica,sans-Serif" font-size="10.00">std::stack::top</text>
</a>
</g>
</g>
<!-- Node1&#45;&gt;Node6 -->
<g id="edge5" class="edge">
<title>Node1&#45;&gt;Node6</title>
<path fill="none" stroke="midnightblue" d="M75.16,-70.76C92.6,-58.38 118.58,-41.05 143,-29 147.11,-26.98 151.48,-25.06 155.89,-23.27"/>
<polygon fill="midnightblue" stroke="midnightblue" points="157.43,-26.43 165.51,-19.59 154.92,-19.89 157.43,-26.43"/>
</g>
</g>
</svg>
