<?xml version="1.0" encoding="UTF-8" standalone="no"?>
<!DOCTYPE svg PUBLIC "-//W3C//DTD SVG 1.1//EN"
 "http://www.w3.org/Graphics/SVG/1.1/DTD/svg11.dtd">
<!-- Generated by graphviz version 2.46.1 (20210213.1702)
 -->
<!-- Title: data_structures::Trie::predict_words Pages: 1 -->
<svg width="410pt" height="66pt"
 viewBox="0.00 0.00 410.00 66.00" xmlns="http://www.w3.org/2000/svg" xmlns:xlink="http://www.w3.org/1999/xlink">
<g id="graph0" class="graph" transform="scale(1 1) rotate(0) translate(4 62)">
<title>data_structures::Trie::predict_words</title>
<polygon fill="white" stroke="transparent" points="-4,4 -4,-62 406,-62 406,4 -4,4"/>
<!-- Node1 -->
<g id="node1" class="node">
<title>Node1</title>
<g id="a_node1"><a xlink:title=" ">
<polygon fill="#bfbfbf" stroke="black" points="0,-14 0,-44 107,-44 107,-14 0,-14"/>
<text text-anchor="start" x="8" y="-32" font-family="Helvetica,sans-Serif" font-size="10.00">data_structures::Trie</text>
<text text-anchor="middle" x="53.5" y="-21" font-family="Helvetica,sans-Serif" font-size="10.00">::predict_words</text>
</a>
</g>
</g>
<!-- Node2 -->
<g id="node2" class="node">
<title>Node2</title>
<g id="a_node2"><a xlink:href="../../d0/d5b/classdata__structures_1_1_trie.html#ac6c9ba24479ed887dceebad2185a3cca" target="_top" xlink:title=" ">
<polygon fill="white" stroke="black" points="143,-14 143,-44 250,-44 250,-14 143,-14"/>
<text text-anchor="start" x="151" y="-32" font-family="Helvetica,sans-Serif" font-size="10.00">data_structures::Trie</text>
<text text-anchor="middle" x="196.5" y="-21" font-family="Helvetica,sans-Serif" font-size="10.00">::get_all_words</text>
</a>
</g>
</g>
<!-- Node1&#45;&gt;Node2 -->
<g id="edge1" class="edge">
<title>Node1&#45;&gt;Node2</title>
<path fill="none" stroke="midnightblue" d="M107,-29C115.44,-29 124.26,-29 132.9,-29"/>
<polygon fill="midnightblue" stroke="midnightblue" points="132.95,-32.5 142.95,-29 132.95,-25.5 132.95,-32.5"/>
</g>
<!-- Node3 -->
<g id="node3" class="node">
<title>Node3</title>
<g id="a_node3"><a target="_blank" xlink:href="http://en.cppreference.com/w/cpp/string/basic_string/pop_back.html#" xlink:title=" ">
<polygon fill="white" stroke="black" points="290,-38.5 290,-57.5 398,-57.5 398,-38.5 290,-38.5"/>
<text text-anchor="middle" x="344" y="-45.5" font-family="Helvetica,sans-Serif" font-size="10.00">std::string::pop_back</text>
</a>
</g>
</g>
<!-- Node2&#45;&gt;Node3 -->
<g id="edge2" class="edge">
<title>Node2&#45;&gt;Node3</title>
<path fill="none" stroke="midnightblue" d="M250.03,-35.86C259.57,-37.11 269.62,-38.42 279.45,-39.7"/>
<polygon fill="midnightblue" stroke="midnightblue" points="279.2,-43.2 289.57,-41.02 280.11,-36.26 279.2,-43.2"/>
</g>
<!-- Node4 -->
<g id="node4" class="node">
<title>Node4</title>
<g id="a_node4"><a target="_blank" xlink:href="http://en.cppreference.com/w/cpp/container/vector/push_back.html#" xlink:title=" ">
<polygon fill="white" stroke="black" points="286,-0.5 286,-19.5 402,-19.5 402,-0.5 286,-0.5"/>
<text text-anchor="middle" x="344" y="-7.5" font-family="Helvetica,sans-Serif" font-size="10.00">std::vector::push_back</text>
</a>
</g>
</g>
<!-- Node2&#45;&gt;Node4 -->
<g id="edge3" class="edge">
<title>Node2&#45;&gt;Node4</title>
<path fill="none" stroke="midnightblue" d="M250.03,-22.14C258.34,-21.06 267.03,-19.92 275.62,-18.8"/>
<polygon fill="midnightblue" stroke="midnightblue" points="276.16,-22.26 285.63,-17.49 275.26,-15.32 276.16,-22.26"/>
</g>
</g>
</svg>
