<?xml version="1.0" encoding="UTF-8" standalone="no"?>
<!DOCTYPE svg PUBLIC "-//W3C//DTD SVG 1.1//EN"
 "http://www.w3.org/Graphics/SVG/1.1/DTD/svg11.dtd">
<!-- Generated by graphviz version 2.46.1 (20210213.1702)
 -->
<!-- Title: data_structures::Trie::delete_word Pages: 1 -->
<svg width="259pt" height="218pt"
 viewBox="0.00 0.00 259.00 218.00" xmlns="http://www.w3.org/2000/svg" xmlns:xlink="http://www.w3.org/1999/xlink">
<g id="graph0" class="graph" transform="scale(1 1) rotate(0) translate(4 214)">
<title>data_structures::Trie::delete_word</title>
<polygon fill="white" stroke="transparent" points="-4,4 -4,-214 255,-214 255,4 -4,4"/>
<!-- Node1 -->
<g id="node1" class="node">
<title>Node1</title>
<g id="a_node1"><a xlink:title=" ">
<polygon fill="#bfbfbf" stroke="black" points="0,-90 0,-120 107,-120 107,-90 0,-90"/>
<text text-anchor="start" x="8" y="-108" font-family="Helvetica,sans-Serif" font-size="10.00">data_structures::Trie</text>
<text text-anchor="middle" x="53.5" y="-97" font-family="Helvetica,sans-Serif" font-size="10.00">::delete_word</text>
</a>
</g>
</g>
<!-- Node2 -->
<g id="node2" class="node">
<title>Node2</title>
<g id="a_node2"><a target="_blank" xlink:href="http://en.cppreference.com/w/cpp/string/basic_string/back.html#" xlink:title=" ">
<polygon fill="white" stroke="black" points="153.5,-190.5 153.5,-209.5 240.5,-209.5 240.5,-190.5 153.5,-190.5"/>
<text text-anchor="middle" x="197" y="-197.5" font-family="Helvetica,sans-Serif" font-size="10.00">std::string::back</text>
</a>
</g>
</g>
<!-- Node1&#45;&gt;Node2 -->
<g id="edge1" class="edge">
<title>Node1&#45;&gt;Node2</title>
<path fill="none" stroke="midnightblue" d="M68.55,-120C85.01,-136.83 113.77,-163.99 143,-181 146.47,-183.02 150.18,-184.87 153.98,-186.57"/>
<polygon fill="midnightblue" stroke="midnightblue" points="152.9,-189.91 163.48,-190.47 155.56,-183.44 152.9,-189.91"/>
</g>
<!-- Node3 -->
<g id="node3" class="node">
<title>Node3</title>
<g id="a_node3"><a target="_blank" xlink:href="http://en.cppreference.com/w/cpp/io/manip/endl.html#" xlink:title=" ">
<polygon fill="white" stroke="black" points="170,-152.5 170,-171.5 224,-171.5 224,-152.5 170,-152.5"/>
<text text-anchor="middle" x="197" y="-159.5" font-family="Helvetica,sans-Serif" font-size="10.00">std::endl</text>
</a>
</g>
</g>
<!-- Node1&#45;&gt;Node3 -->
<g id="edge2" class="edge">
<title>Node1&#45;&gt;Node3</title>
<path fill="none" stroke="midnightblue" d="M88.34,-120.11C104.74,-127.28 124.8,-135.84 143,-143 148.54,-145.18 154.43,-147.39 160.21,-149.51"/>
<polygon fill="midnightblue" stroke="midnightblue" points="159.14,-152.84 169.73,-152.94 161.51,-146.26 159.14,-152.84"/>
</g>
<!-- Node4 -->
<g id="node4" class="node">
<title>Node4</title>
<g id="a_node4"><a target="_blank" xlink:href="http://en.cppreference.com/w/cpp/container/stack/pop.html#" xlink:title=" ">
<polygon fill="white" stroke="black" points="156,-114.5 156,-133.5 238,-133.5 238,-114.5 156,-114.5"/>
<text text-anchor="middle" x="197" y="-121.5" font-family="Helvetica,sans-Serif" font-size="10.00">std::stack::pop</text>
</a>
</g>
</g>
<!-- Node1&#45;&gt;Node4 -->
<g id="edge3" class="edge">
<title>Node1&#45;&gt;Node4</title>
<path fill="none" stroke="midnightblue" d="M107.19,-112.07C119.71,-113.76 133.04,-115.55 145.47,-117.21"/>
<polygon fill="midnightblue" stroke="midnightblue" points="145.28,-120.72 155.65,-118.58 146.21,-113.78 145.28,-120.72"/>
</g>
<!-- Node5 -->
<g id="node5" class="node">
<title>Node5</title>
<g id="a_node5"><a target="_blank" xlink:href="http://en.cppreference.com/w/cpp/string/basic_string/pop_back.html#" xlink:title=" ">
<polygon fill="white" stroke="black" points="143,-76.5 143,-95.5 251,-95.5 251,-76.5 143,-76.5"/>
<text text-anchor="middle" x="197" y="-83.5" font-family="Helvetica,sans-Serif" font-size="10.00">std::string::pop_back</text>
</a>
</g>
</g>
<!-- Node1&#45;&gt;Node5 -->
<g id="edge4" class="edge">
<title>Node1&#45;&gt;Node5</title>
<path fill="none" stroke="midnightblue" d="M107.19,-97.93C115.55,-96.8 124.27,-95.63 132.84,-94.48"/>
<polygon fill="midnightblue" stroke="midnightblue" points="133.35,-97.94 142.79,-93.14 132.42,-91.01 133.35,-97.94"/>
</g>
<!-- Node6 -->
<g id="node6" class="node">
<title>Node6</title>
<g id="a_node6"><a target="_blank" xlink:href="http://en.cppreference.com/w/cpp/container/stack/push.html#" xlink:title=" ">
<polygon fill="white" stroke="black" points="153.5,-38.5 153.5,-57.5 240.5,-57.5 240.5,-38.5 153.5,-38.5"/>
<text text-anchor="middle" x="197" y="-45.5" font-family="Helvetica,sans-Serif" font-size="10.00">std::stack::push</text>
</a>
</g>
</g>
<!-- Node1&#45;&gt;Node6 -->
<g id="edge5" class="edge">
<title>Node1&#45;&gt;Node6</title>
<path fill="none" stroke="midnightblue" d="M88.34,-89.89C104.74,-82.72 124.8,-74.16 143,-67 148.12,-64.99 153.54,-62.94 158.9,-60.97"/>
<polygon fill="midnightblue" stroke="midnightblue" points="160.16,-64.24 168.37,-57.54 157.78,-57.66 160.16,-64.24"/>
</g>
<!-- Node7 -->
<g id="node7" class="node">
<title>Node7</title>
<g id="a_node7"><a target="_blank" xlink:href="http://en.cppreference.com/w/cpp/container/stack/top.html#" xlink:title=" ">
<polygon fill="white" stroke="black" points="157,-0.5 157,-19.5 237,-19.5 237,-0.5 157,-0.5"/>
<text text-anchor="middle" x="197" y="-7.5" font-family="Helvetica,sans-Serif" font-size="10.00">std::stack::top</text>
</a>
</g>
</g>
<!-- Node1&#45;&gt;Node7 -->
<g id="edge6" class="edge">
<title>Node1&#45;&gt;Node7</title>
<path fill="none" stroke="midnightblue" d="M68.55,-90C85.01,-73.17 113.77,-46.01 143,-29 146.47,-26.98 150.18,-25.13 153.98,-23.43"/>
<polygon fill="midnightblue" stroke="midnightblue" points="155.56,-26.56 163.48,-19.53 152.9,-20.09 155.56,-26.56"/>
</g>
</g>
</svg>
